<?xml version="1.0" standalone="no"?>
<!DOCTYPE svg PUBLIC "-//W3C//DTD SVG 20010904//EN"
 "http://www.w3.org/TR/2001/REC-SVG-20010904/DTD/svg10.dtd">
<svg version="1.0" xmlns="http://www.w3.org/2000/svg"
 width="801.000000pt" height="801.000000pt" viewBox="0 0 801.000000 801.000000"
 preserveAspectRatio="xMidYMid meet">
<metadata>
Created by potrace 1.14, written by Peter Selinger 2001-2017
</metadata>
<g transform="translate(0.000000,801.000000) scale(0.100000,-0.100000)"
fill="#000000" stroke="none">
<path d="M3776 6158 l-177 -173 3 -442 3 -442 247 147 248 147 2 337 3 338
368 -251 367 -250 0 -752 0 -752 61 -45 c34 -25 68 -49 75 -53 12 -7 14 126
14 830 l-1 838 -312 210 c-171 116 -403 272 -515 348 -112 75 -205 137 -206
137 -1 0 -82 -78 -180 -172z"/>
<path d="M3497 4807 l-467 -309 0 -384 0 -384 70 0 70 0 0 349 0 349 319 211
c176 116 322 211 325 211 3 0 6 -657 6 -1460 0 -1161 -3 -1460 -12 -1460 -17
0 -414 -58 -455 -66 l-33 -6 1 673 0 674 165 155 164 155 -320 3 -321 2 -145
-137 -144 -137 -2 -754 -3 -754 -310 -78 c-318 -80 -792 -213 -804 -226 -3 -4
6 -4 21 0 44 10 569 72 848 100 320 32 676 61 1030 83 353 22 1387 25 1640 5
517 -41 906 -119 1163 -231 l48 -21 -18 32 c-31 55 -164 181 -253 240 -150 98
-308 167 -529 229 -100 27 -150 52 -487 235 -207 112 -377 204 -380 204 -2 0
-4 -74 -4 -163 l0 -164 -238 -6 c-131 -4 -253 -10 -270 -13 l-32 -6 0 881 0
882 200 96 200 96 0 396 0 397 -92 66 c-51 36 -181 128 -288 205 l-196 139
-467 -309z"/>
<path d="M4682 3813 l3 -147 390 -212 390 -212 3 121 c2 88 -1 124 -10 133 -7
6 -185 113 -396 237 l-383 226 3 -146z"/>
<path d="M4682 3390 l3 -122 390 -213 390 -213 3 111 c1 61 1 116 -2 122 -2 6
-156 94 -343 195 -186 101 -362 197 -391 213 l-53 29 3 -122z"/>
<path d="M4680 2992 l0 -120 363 -197 c199 -109 377 -206 395 -217 l32 -20 0
124 0 123 -287 155 c-158 85 -335 181 -395 213 l-108 58 0 -119z"/>
<path d="M4680 2592 l0 -120 395 -214 395 -215 0 121 0 121 -387 210 c-212
116 -390 212 -395 213 -4 2 -8 -50 -8 -116z"/>
</g>
</svg>
